<mxfile host="app.diagrams.net" agent="Mozilla/5.0 (Windows NT 10.0; Win64; x64) AppleWebKit/537.36 (KHTML, like Gecko) Chrome/126.0.0.0 Safari/537.36" version="24.7.6">
  <diagram name="第 1 页" id="tl8vHhJEb7GYOu0AT_a5">
    <mxGraphModel dx="1147" dy="737" grid="1" gridSize="10" guides="1" tooltips="1" connect="1" arrows="1" fold="1" page="1" pageScale="1" pageWidth="827" pageHeight="1169" math="0" shadow="0">
      <root>
        <mxCell id="0" />
        <mxCell id="1" parent="0" />
        <mxCell id="jUEusMoKo9cOmuES4f7d-12" style="edgeStyle=orthogonalEdgeStyle;rounded=0;orthogonalLoop=1;jettySize=auto;html=1;exitX=0.5;exitY=1;exitDx=0;exitDy=0;exitPerimeter=0;" edge="1" parent="1" source="jUEusMoKo9cOmuES4f7d-1" target="jUEusMoKo9cOmuES4f7d-11">
          <mxGeometry relative="1" as="geometry" />
        </mxCell>
        <mxCell id="jUEusMoKo9cOmuES4f7d-1" value="Sass下发批量添加布控" style="strokeWidth=2;html=1;shape=mxgraph.flowchart.start_1;whiteSpace=wrap;fillColor=#d5e8d4;strokeColor=#82b366;" vertex="1" parent="1">
          <mxGeometry x="364" y="20" width="96" height="50" as="geometry" />
        </mxCell>
        <mxCell id="jUEusMoKo9cOmuES4f7d-20" style="edgeStyle=orthogonalEdgeStyle;rounded=0;orthogonalLoop=1;jettySize=auto;html=1;exitX=0.5;exitY=1;exitDx=0;exitDy=0;entryX=0.5;entryY=0;entryDx=0;entryDy=0;" edge="1" parent="1" source="jUEusMoKo9cOmuES4f7d-3" target="jUEusMoKo9cOmuES4f7d-19">
          <mxGeometry relative="1" as="geometry" />
        </mxCell>
        <mxCell id="jUEusMoKo9cOmuES4f7d-3" value="根据指定的repositoryId查询库是否存在" style="rounded=0;whiteSpace=wrap;html=1;fillColor=#dae8fc;strokeColor=#6c8ebf;" vertex="1" parent="1">
          <mxGeometry x="349" y="180" width="126" height="50" as="geometry" />
        </mxCell>
        <mxCell id="jUEusMoKo9cOmuES4f7d-4" value="每一步校验不通过都会抛出错误；涉及到数据库写入的操作如果出现异常则回滚" style="rounded=0;whiteSpace=wrap;html=1;fillColor=#e1d5e7;strokeColor=#9673a6;" vertex="1" parent="1">
          <mxGeometry x="140" y="370" width="120" height="70" as="geometry" />
        </mxCell>
        <mxCell id="jUEusMoKo9cOmuES4f7d-26" style="edgeStyle=orthogonalEdgeStyle;rounded=0;orthogonalLoop=1;jettySize=auto;html=1;exitX=0.5;exitY=1;exitDx=0;exitDy=0;entryX=0.5;entryY=0;entryDx=0;entryDy=0;" edge="1" parent="1" source="jUEusMoKo9cOmuES4f7d-5" target="jUEusMoKo9cOmuES4f7d-6">
          <mxGeometry relative="1" as="geometry" />
        </mxCell>
        <mxCell id="jUEusMoKo9cOmuES4f7d-5" value="过滤出不是静态库的库Id" style="rounded=0;whiteSpace=wrap;html=1;fillColor=#dae8fc;strokeColor=#6c8ebf;" vertex="1" parent="1">
          <mxGeometry x="342" y="345" width="141" height="40" as="geometry" />
        </mxCell>
        <mxCell id="jUEusMoKo9cOmuES4f7d-28" style="edgeStyle=orthogonalEdgeStyle;rounded=0;orthogonalLoop=1;jettySize=auto;html=1;exitX=0.5;exitY=1;exitDx=0;exitDy=0;entryX=0.5;entryY=0;entryDx=0;entryDy=0;" edge="1" parent="1" source="jUEusMoKo9cOmuES4f7d-6" target="jUEusMoKo9cOmuES4f7d-27">
          <mxGeometry relative="1" as="geometry" />
        </mxCell>
        <mxCell id="jUEusMoKo9cOmuES4f7d-6" value="根据过滤后的库Id和channelId查询已经存在的布控记录，过滤出需要添加的布控" style="rounded=0;whiteSpace=wrap;html=1;fillColor=#dae8fc;strokeColor=#6c8ebf;" vertex="1" parent="1">
          <mxGeometry x="343" y="410" width="141" height="60" as="geometry" />
        </mxCell>
        <mxCell id="jUEusMoKo9cOmuES4f7d-34" style="edgeStyle=orthogonalEdgeStyle;rounded=0;orthogonalLoop=1;jettySize=auto;html=1;exitX=0.5;exitY=1;exitDx=0;exitDy=0;entryX=0.5;entryY=0;entryDx=0;entryDy=0;" edge="1" parent="1" source="jUEusMoKo9cOmuES4f7d-7" target="jUEusMoKo9cOmuES4f7d-8">
          <mxGeometry relative="1" as="geometry" />
        </mxCell>
        <mxCell id="jUEusMoKo9cOmuES4f7d-7" value="写入数据库surveillance" style="rounded=0;whiteSpace=wrap;html=1;fillColor=#dae8fc;strokeColor=#6c8ebf;" vertex="1" parent="1">
          <mxGeometry x="343" y="585" width="141" height="35" as="geometry" />
        </mxCell>
        <mxCell id="jUEusMoKo9cOmuES4f7d-35" style="edgeStyle=orthogonalEdgeStyle;rounded=0;orthogonalLoop=1;jettySize=auto;html=1;exitX=0.5;exitY=1;exitDx=0;exitDy=0;entryX=0.5;entryY=0;entryDx=0;entryDy=0;" edge="1" parent="1" source="jUEusMoKo9cOmuES4f7d-8" target="jUEusMoKo9cOmuES4f7d-9">
          <mxGeometry relative="1" as="geometry" />
        </mxCell>
        <mxCell id="jUEusMoKo9cOmuES4f7d-8" value="删除告警记录缓存" style="rounded=0;whiteSpace=wrap;html=1;fillColor=#dae8fc;strokeColor=#6c8ebf;" vertex="1" parent="1">
          <mxGeometry x="345" y="656" width="138" height="40" as="geometry" />
        </mxCell>
        <mxCell id="jUEusMoKo9cOmuES4f7d-9" value="Rpc调用EX添加布控规则" style="rounded=0;whiteSpace=wrap;html=1;fillColor=#dae8fc;strokeColor=#6c8ebf;" vertex="1" parent="1">
          <mxGeometry x="343.5" y="730" width="141" height="40" as="geometry" />
        </mxCell>
        <mxCell id="jUEusMoKo9cOmuES4f7d-14" style="edgeStyle=orthogonalEdgeStyle;rounded=0;orthogonalLoop=1;jettySize=auto;html=1;exitX=1;exitY=0.5;exitDx=0;exitDy=0;" edge="1" parent="1" source="jUEusMoKo9cOmuES4f7d-11">
          <mxGeometry relative="1" as="geometry">
            <mxPoint x="480" y="120" as="targetPoint" />
          </mxGeometry>
        </mxCell>
        <mxCell id="jUEusMoKo9cOmuES4f7d-15" value="No" style="edgeLabel;html=1;align=center;verticalAlign=middle;resizable=0;points=[];" vertex="1" connectable="0" parent="jUEusMoKo9cOmuES4f7d-14">
          <mxGeometry x="-0.2414" relative="1" as="geometry">
            <mxPoint as="offset" />
          </mxGeometry>
        </mxCell>
        <mxCell id="jUEusMoKo9cOmuES4f7d-16" style="edgeStyle=orthogonalEdgeStyle;rounded=0;orthogonalLoop=1;jettySize=auto;html=1;exitX=0.5;exitY=1;exitDx=0;exitDy=0;entryX=0.5;entryY=0;entryDx=0;entryDy=0;" edge="1" parent="1" source="jUEusMoKo9cOmuES4f7d-11" target="jUEusMoKo9cOmuES4f7d-3">
          <mxGeometry relative="1" as="geometry" />
        </mxCell>
        <mxCell id="jUEusMoKo9cOmuES4f7d-17" value="Yes" style="edgeLabel;html=1;align=center;verticalAlign=middle;resizable=0;points=[];" vertex="1" connectable="0" parent="jUEusMoKo9cOmuES4f7d-16">
          <mxGeometry x="-0.2667" y="-1" relative="1" as="geometry">
            <mxPoint as="offset" />
          </mxGeometry>
        </mxCell>
        <mxCell id="jUEusMoKo9cOmuES4f7d-11" value="参数校验" style="rhombus;whiteSpace=wrap;html=1;fillColor=#fff2cc;strokeColor=#d6b656;" vertex="1" parent="1">
          <mxGeometry x="373" y="90" width="78" height="60" as="geometry" />
        </mxCell>
        <mxCell id="jUEusMoKo9cOmuES4f7d-13" value="抛出异常" style="strokeWidth=2;html=1;shape=mxgraph.flowchart.start_1;whiteSpace=wrap;fillColor=#f8cecc;strokeColor=#b85450;" vertex="1" parent="1">
          <mxGeometry x="483" y="100" width="77" height="40" as="geometry" />
        </mxCell>
        <mxCell id="jUEusMoKo9cOmuES4f7d-24" style="edgeStyle=orthogonalEdgeStyle;rounded=0;orthogonalLoop=1;jettySize=auto;html=1;exitX=0.5;exitY=1;exitDx=0;exitDy=0;entryX=0.5;entryY=0;entryDx=0;entryDy=0;" edge="1" parent="1" source="jUEusMoKo9cOmuES4f7d-19" target="jUEusMoKo9cOmuES4f7d-5">
          <mxGeometry relative="1" as="geometry" />
        </mxCell>
        <mxCell id="jUEusMoKo9cOmuES4f7d-25" value="Yes" style="edgeLabel;html=1;align=center;verticalAlign=middle;resizable=0;points=[];" vertex="1" connectable="0" parent="jUEusMoKo9cOmuES4f7d-24">
          <mxGeometry x="-0.2302" y="1" relative="1" as="geometry">
            <mxPoint as="offset" />
          </mxGeometry>
        </mxCell>
        <mxCell id="jUEusMoKo9cOmuES4f7d-19" value="库存在" style="rhombus;whiteSpace=wrap;html=1;fillColor=#fff2cc;strokeColor=#d6b656;" vertex="1" parent="1">
          <mxGeometry x="373" y="250" width="78" height="60" as="geometry" />
        </mxCell>
        <mxCell id="jUEusMoKo9cOmuES4f7d-21" value="抛出异常" style="strokeWidth=2;html=1;shape=mxgraph.flowchart.start_1;whiteSpace=wrap;fillColor=#f8cecc;strokeColor=#b85450;" vertex="1" parent="1">
          <mxGeometry x="483" y="260" width="77" height="40" as="geometry" />
        </mxCell>
        <mxCell id="jUEusMoKo9cOmuES4f7d-22" style="edgeStyle=orthogonalEdgeStyle;rounded=0;orthogonalLoop=1;jettySize=auto;html=1;exitX=1;exitY=0.5;exitDx=0;exitDy=0;entryX=0;entryY=0.5;entryDx=0;entryDy=0;entryPerimeter=0;" edge="1" parent="1" source="jUEusMoKo9cOmuES4f7d-19" target="jUEusMoKo9cOmuES4f7d-21">
          <mxGeometry relative="1" as="geometry" />
        </mxCell>
        <mxCell id="jUEusMoKo9cOmuES4f7d-23" value="No" style="edgeLabel;html=1;align=center;verticalAlign=middle;resizable=0;points=[];" vertex="1" connectable="0" parent="jUEusMoKo9cOmuES4f7d-22">
          <mxGeometry x="-0.375" y="-1" relative="1" as="geometry">
            <mxPoint as="offset" />
          </mxGeometry>
        </mxCell>
        <mxCell id="jUEusMoKo9cOmuES4f7d-30" style="edgeStyle=orthogonalEdgeStyle;rounded=0;orthogonalLoop=1;jettySize=auto;html=1;exitX=1;exitY=0.5;exitDx=0;exitDy=0;entryX=0;entryY=0.5;entryDx=0;entryDy=0;" edge="1" parent="1" source="jUEusMoKo9cOmuES4f7d-27" target="jUEusMoKo9cOmuES4f7d-29">
          <mxGeometry relative="1" as="geometry" />
        </mxCell>
        <mxCell id="jUEusMoKo9cOmuES4f7d-31" value="Yes" style="edgeLabel;html=1;align=center;verticalAlign=middle;resizable=0;points=[];" vertex="1" connectable="0" parent="jUEusMoKo9cOmuES4f7d-30">
          <mxGeometry x="-0.3333" y="2" relative="1" as="geometry">
            <mxPoint as="offset" />
          </mxGeometry>
        </mxCell>
        <mxCell id="jUEusMoKo9cOmuES4f7d-32" style="edgeStyle=orthogonalEdgeStyle;rounded=0;orthogonalLoop=1;jettySize=auto;html=1;exitX=0.5;exitY=1;exitDx=0;exitDy=0;entryX=0.5;entryY=0;entryDx=0;entryDy=0;" edge="1" parent="1" source="jUEusMoKo9cOmuES4f7d-27" target="jUEusMoKo9cOmuES4f7d-7">
          <mxGeometry relative="1" as="geometry" />
        </mxCell>
        <mxCell id="jUEusMoKo9cOmuES4f7d-33" value="No" style="edgeLabel;html=1;align=center;verticalAlign=middle;resizable=0;points=[];" vertex="1" connectable="0" parent="jUEusMoKo9cOmuES4f7d-32">
          <mxGeometry x="-0.3555" y="-3" relative="1" as="geometry">
            <mxPoint as="offset" />
          </mxGeometry>
        </mxCell>
        <mxCell id="jUEusMoKo9cOmuES4f7d-27" value="已添加布控" style="rhombus;whiteSpace=wrap;html=1;fillColor=#fff2cc;strokeColor=#d6b656;" vertex="1" parent="1">
          <mxGeometry x="371" y="500" width="86" height="60" as="geometry" />
        </mxCell>
        <mxCell id="jUEusMoKo9cOmuES4f7d-29" value="组装布控ID参数" style="rounded=0;whiteSpace=wrap;html=1;fillColor=#dae8fc;strokeColor=#6c8ebf;" vertex="1" parent="1">
          <mxGeometry x="490" y="510" width="110" height="40" as="geometry" />
        </mxCell>
        <mxCell id="jUEusMoKo9cOmuES4f7d-36" value="返回布控信息" style="strokeWidth=2;html=1;shape=mxgraph.flowchart.start_1;whiteSpace=wrap;fillColor=#d5e8d4;strokeColor=#82b366;" vertex="1" parent="1">
          <mxGeometry x="369" y="810" width="90" height="40" as="geometry" />
        </mxCell>
        <mxCell id="jUEusMoKo9cOmuES4f7d-37" style="edgeStyle=orthogonalEdgeStyle;rounded=0;orthogonalLoop=1;jettySize=auto;html=1;exitX=0.5;exitY=1;exitDx=0;exitDy=0;entryX=0.5;entryY=0;entryDx=0;entryDy=0;entryPerimeter=0;" edge="1" parent="1" source="jUEusMoKo9cOmuES4f7d-9" target="jUEusMoKo9cOmuES4f7d-36">
          <mxGeometry relative="1" as="geometry" />
        </mxCell>
      </root>
    </mxGraphModel>
  </diagram>
</mxfile>
